<?xml version="1.0" encoding="UTF-8" standalone="no"?>
<!DOCTYPE svg PUBLIC "-//W3C//DTD SVG 1.1//EN"
 "http://www.w3.org/Graphics/SVG/1.1/DTD/svg11.dtd">
<!-- Generated by graphviz version 13.1.2 (20250808.2320)
 -->
<!-- Title: introductions Pages: 1 -->
<svg width="385pt" height="194pt"
 viewBox="0.00 0.00 385.00 194.00" xmlns="http://www.w3.org/2000/svg" xmlns:xlink="http://www.w3.org/1999/xlink">
<g id="graph0" class="graph" transform="scale(1 1) rotate(0) translate(25.2 169.2)">
<title>introductions</title>
<!-- Ana -->
<g id="node1" class="node">
<title>Ana</title>
<path fill="#f4f0e6" stroke="#2f5f53" d="M42,-90C42,-90 12,-90 12,-90 6,-90 0,-84 0,-78 0,-78 0,-66 0,-66 0,-60 6,-54 12,-54 12,-54 42,-54 42,-54 48,-54 54,-60 54,-66 54,-66 54,-78 54,-78 54,-84 48,-90 42,-90"/>
<text xml:space="preserve" text-anchor="middle" x="27" y="-66.97" font-family="Inter" font-size="12.00">Ana</text>
</g>
<!-- Bogdan -->
<g id="node2" class="node">
<title>Bogdan</title>
<path fill="#f4f0e6" stroke="#2f5f53" d="M184.38,-144C184.38,-144 150.38,-144 150.38,-144 144.38,-144 138.38,-138 138.38,-132 138.38,-132 138.38,-120 138.38,-120 138.38,-114 144.38,-108 150.38,-108 150.38,-108 184.38,-108 184.38,-108 190.38,-108 196.38,-114 196.38,-120 196.38,-120 196.38,-132 196.38,-132 196.38,-138 190.38,-144 184.38,-144"/>
<text xml:space="preserve" text-anchor="middle" x="167.38" y="-120.97" font-family="Inter" font-size="12.00">Bogdan</text>
</g>
<!-- Ana&#45;&gt;Bogdan -->
<g id="edge1" class="edge">
<title>Ana&#45;&gt;Bogdan</title>
<path fill="none" stroke="#8a5a44" d="M54.35,-82.28C75.91,-90.7 106.62,-102.68 130.43,-111.97"/>
<polygon fill="#8a5a44" stroke="#8a5a44" points="129.4,-114.2 136.81,-114.46 131.18,-109.63 129.4,-114.2"/>
<text xml:space="preserve" text-anchor="middle" x="96" y="-108.74" font-family="Inter" font-size="10.00">2021&#45;01&#45;03</text>
</g>
<!-- Carmen -->
<g id="node3" class="node">
<title>Carmen</title>
<path fill="#f4f0e6" stroke="#2f5f53" d="M184.75,-90C184.75,-90 150,-90 150,-90 144,-90 138,-84 138,-78 138,-78 138,-66 138,-66 138,-60 144,-54 150,-54 150,-54 184.75,-54 184.75,-54 190.75,-54 196.75,-60 196.75,-66 196.75,-66 196.75,-78 196.75,-78 196.75,-84 190.75,-90 184.75,-90"/>
<text xml:space="preserve" text-anchor="middle" x="167.38" y="-66.97" font-family="Inter" font-size="12.00">Carmen</text>
</g>
<!-- Ana&#45;&gt;Carmen -->
<g id="edge2" class="edge">
<title>Ana&#45;&gt;Carmen</title>
<path fill="none" stroke="#8a5a44" d="M54.35,-72C75.58,-72 105.69,-72 129.34,-72"/>
<polygon fill="#8a5a44" stroke="#8a5a44" points="129.22,-74.45 136.22,-72 129.22,-69.55 129.22,-74.45"/>
<text xml:space="preserve" text-anchor="middle" x="96" y="-73.75" font-family="Inter" font-size="10.00">2021&#45;02&#45;11</text>
</g>
<!-- Florin -->
<g id="node5" class="node">
<title>Florin</title>
<path fill="#f4f0e6" stroke="#2f5f53" d="M182.38,-36C182.38,-36 152.38,-36 152.38,-36 146.38,-36 140.38,-30 140.38,-24 140.38,-24 140.38,-12 140.38,-12 140.38,-6 146.38,0 152.38,0 152.38,0 182.38,0 182.38,0 188.38,0 194.38,-6 194.38,-12 194.38,-12 194.38,-24 194.38,-24 194.38,-30 188.38,-36 182.38,-36"/>
<text xml:space="preserve" text-anchor="middle" x="167.38" y="-12.97" font-family="Inter" font-size="12.00">Florin</text>
</g>
<!-- Ana&#45;&gt;Florin -->
<g id="edge4" class="edge">
<title>Ana&#45;&gt;Florin</title>
<path fill="none" stroke="#8a5a44" d="M54.35,-61.72C76.47,-53.08 108.23,-40.69 132.28,-31.3"/>
<polygon fill="#8a5a44" stroke="#8a5a44" points="133.08,-33.62 138.71,-28.8 131.3,-29.06 133.08,-33.62"/>
<text xml:space="preserve" text-anchor="middle" x="96" y="-56.28" font-family="Inter" font-size="10.00">2021&#45;07&#45;19</text>
</g>
<!-- Daria -->
<g id="node4" class="node">
<title>Daria</title>
<path fill="#f4f0e6" stroke="#2f5f53" d="M322.75,-90C322.75,-90 292.75,-90 292.75,-90 286.75,-90 280.75,-84 280.75,-78 280.75,-78 280.75,-66 280.75,-66 280.75,-60 286.75,-54 292.75,-54 292.75,-54 322.75,-54 322.75,-54 328.75,-54 334.75,-60 334.75,-66 334.75,-66 334.75,-78 334.75,-78 334.75,-84 328.75,-90 322.75,-90"/>
<text xml:space="preserve" text-anchor="middle" x="307.75" y="-66.97" font-family="Inter" font-size="12.00">Daria</text>
</g>
<!-- Carmen&#45;&gt;Daria -->
<g id="edge3" class="edge">
<title>Carmen&#45;&gt;Daria</title>
<path fill="none" stroke="#8a5a44" d="M197.05,-72C218.81,-72 248.82,-72 271.96,-72"/>
<polygon fill="#8a5a44" stroke="#8a5a44" points="271.94,-74.45 278.94,-72 271.94,-69.55 271.94,-74.45"/>
<text xml:space="preserve" text-anchor="middle" x="238.75" y="-73.75" font-family="Inter" font-size="10.00">2021&#45;05&#45;02</text>
</g>
<!-- Mihai -->
<g id="node6" class="node">
<title>Mihai</title>
<path fill="#f4f0e6" stroke="#2f5f53" d="M322.75,-36C322.75,-36 292.75,-36 292.75,-36 286.75,-36 280.75,-30 280.75,-24 280.75,-24 280.75,-12 280.75,-12 280.75,-6 286.75,0 292.75,0 292.75,0 322.75,0 322.75,0 328.75,0 334.75,-6 334.75,-12 334.75,-12 334.75,-24 334.75,-24 334.75,-30 328.75,-36 322.75,-36"/>
<text xml:space="preserve" text-anchor="middle" x="307.75" y="-12.97" font-family="Inter" font-size="12.00">Mihai</text>
</g>
<!-- Florin&#45;&gt;Mihai -->
<g id="edge5" class="edge">
<title>Florin&#45;&gt;Mihai</title>
<path fill="none" stroke="#8a5a44" d="M194.73,-18C216.66,-18 248.05,-18 272.03,-18"/>
<polygon fill="#8a5a44" stroke="#8a5a44" points="271.98,-20.45 278.98,-18 271.98,-15.55 271.98,-20.45"/>
<text xml:space="preserve" text-anchor="middle" x="238.75" y="-19.75" font-family="Inter" font-size="10.00">2022&#45;01&#45;14</text>
</g>
</g>
</svg>
